HIERARCHY
ROOT Hips
{
    OFFSET 0.000000 0.000000 0.000000
    CHANNELS 6 Xposition Yposition Zposition Zrotation Xrotation Yrotation
    JOINT Spine
    {
        OFFSET -0.000000 14.517291 0.000000
        CHANNELS 3 Zrotation Xrotation Yrotation
        JOINT Spine1
        {
            OFFSET -0.000000 37.558300 0.000000
            CHANNELS 3 Zrotation Xrotation Yrotation
            JOINT Neck
            {
                OFFSET -0.000000 37.404057 3.400369
                CHANNELS 3 Zrotation Xrotation Yrotation
                JOINT Head
                {
                    OFFSET -0.000000 24.785618 -3.540803
                    CHANNELS 3 Zrotation Xrotation Yrotation
                    End Site
                    {
                        OFFSET -0.000000 35.408028 0.000000
                    }
                }
            }
            JOINT LeftShoulder
            {
                OFFSET 6.992933 33.973492 -0.192664
                CHANNELS 3 Zrotation Xrotation Yrotation
                JOINT LeftArm
                {
                    OFFSET 21.527611 0.000000 0.000000
                    CHANNELS 3 Zrotation Xrotation Yrotation
                    JOINT LeftForeArm
                    {
                        OFFSET 56.353916 0.000000 0.000000
                        CHANNELS 3 Zrotation Xrotation Yrotation
                        JOINT LeftHand
                        {
                            OFFSET 47.774071 0.000000 0.000000
                            CHANNELS 3 Zrotation Xrotation Yrotation
                            End Site
                            {
                                OFFSET 26.556021 0.000000 0.000000
                            }
                        }
                    }
                }
            }
            JOINT RightShoulder
            {
                OFFSET -7.065357 33.973492 -0.192664
                CHANNELS 3 Zrotation Xrotation Yrotation
                JOINT RightArm
                {
                    OFFSET -21.527611 0.000000 0.000000
                    CHANNELS 3 Zrotation Xrotation Yrotation
                    JOINT RightForeArm
                    {
                        OFFSET -56.353916 0.000000 0.000000
                        CHANNELS 3 Zrotation Xrotation Yrotation
                        JOINT RightHand
                        {
                            OFFSET -47.774071 0.000000 0.000000
                            CHANNELS 3 Zrotation Xrotation Yrotation
                            End Site
                            {
                                OFFSET -26.556021 0.000000 0.000000
                            }
                        }
                    }
                }
            }
        }
    }
    JOINT LeftUpLeg
    {
        OFFSET 17.704014 0.000000 0.000000
        CHANNELS 3 Zrotation Xrotation Yrotation
        JOINT LeftLeg
        {
            OFFSET -0.000000 -81.181816 0.000000
            CHANNELS 3 Zrotation Xrotation Yrotation
            JOINT LeftFoot
            {
                OFFSET -0.000000 -62.821102 0.000000
                CHANNELS 3 Zrotation Xrotation Yrotation
                JOINT LeftToeBase
                {
                    OFFSET -0.000000 -11.507608 26.556021
                    CHANNELS 3 Zrotation Xrotation Yrotation
                    End Site
                    {
                        OFFSET -0.000000 0.000000 7.081605
                    }
                }
            }
        }
    }
    JOINT RightUpLeg
    {
        OFFSET -17.704014 0.000000 0.000000
        CHANNELS 3 Zrotation Xrotation Yrotation
        JOINT RightLeg
        {
            OFFSET -0.000000 -81.181816 0.000000
            CHANNELS 3 Zrotation Xrotation Yrotation
            JOINT RightFoot
            {
                OFFSET -0.000000 -62.821102 0.000000
                CHANNELS 3 Zrotation Xrotation Yrotation
                JOINT RightToeBase
                {
                    OFFSET -0.000000 -11.507608 26.556021
                    CHANNELS 3 Zrotation Xrotation Yrotation
                    End Site
                    {
                        OFFSET -0.000000 0.000000 7.081605
                    }
                }
            }
        }
    }
}
MOTION
Frames:    4
Frame Time:    0.008333
-11.288826    157.602310    -92.607628    -2.748124    -6.312786    48.971878    -0.276574    -3.513072    0.964432    -7.321947    2.195135    0.460963    4.053502    8.233874    -21.668114    17.338732    -3.369076    -20.020430    4.856756    10.261818    -15.783642    -29.054855    24.699701    -41.091106    -32.737484    5.609406    -17.378447    -1.126256    0.613774    -14.449505    -16.162481    -6.358362    -4.723532    12.652212    -26.219006    48.548641    -6.217319    -1.411759    13.945545    -8.046314    -3.181962    34.885941    23.901188    -0.160374    -4.034495    -10.172722    24.466438    -20.021635    -3.385285    -24.136255    41.253242    0.000000    0.000000    0.000000    -11.016853    -13.937378    -22.293285    5.305461    16.815092    -18.856472    6.513200    9.195999    -10.576794    0.000000    0.000000    0.000000    
-11.304912    157.588776    -92.616898    -2.747515    -6.332339    48.975243    -0.277881    -3.503663    0.960335    -7.302630    2.188962    0.458803    4.043919    8.238983    -21.663616    17.345961    -3.366318    -20.013979    4.875386    10.248239    -15.803177    -29.068504    24.693773    -41.035500    -32.702057    5.463259    -17.201908    -1.155883    0.531239    -14.591937    -16.165754    -6.368195    -4.722613    12.656073    -26.210678    48.552853    -6.214987    -1.378527    13.962718    -8.029061    -3.143942    34.903790    23.922043    -0.189850    -4.041398    -10.182688    24.541912    -20.037464    -3.360983    -24.156889    41.257938    0.000000    0.000000    0.000000    -11.010256    -13.941944    -22.277050    5.320605    16.840174    -18.878792    6.482107    9.180686    -10.563417    0.000000    0.000000    0.000000    
-11.318922    157.566483    -92.611603    -2.743047    -6.381011    48.983761    -0.271141    -3.483268    0.957417    -7.269998    2.201279    0.457967    4.038226    8.223164    -21.665190    17.351627    -3.347297    -20.017727    4.893172    10.239597    -15.816038    -29.064001    24.704620    -41.014450    -32.630772    5.330042    -17.087238    -1.202031    0.449137    -14.561474    -16.173603    -6.373071    -4.725288    12.667325    -26.215672    48.556801    -6.212630    -1.338190    13.977289    -8.074718    -3.121515    34.953362    23.980394    -0.197393    -4.090984    -10.237663    24.613014    -20.048147    -3.323989    -24.207323    41.304066    0.000000    0.000000    0.000000    -10.979052    -13.918089    -22.261356    5.328825    16.868799    -18.895727    6.497063    9.150567    -10.560967    0.000000    0.000000    0.000000    
-11.330323    157.554001    -92.623466    -2.741516    -6.391836    48.990013    -0.276413    -3.486222    0.952920    -7.257132    2.206656    0.456585    4.056402    8.216952    -21.658100    17.328442    -3.349014    -20.015415    4.907898    10.225072    -15.826792    -29.064596    24.723387    -40.993282    -32.537518    5.191271    -17.002739    -1.202691    0.350375    -14.553454    -16.176270    -6.377216    -4.730630    12.683871    -26.213154    48.567780    -6.217278    -1.309924    13.996981    -8.093869    -3.099643    34.979900    23.991440    -0.231166    -4.118294    -10.264211    24.678251    -20.044216    -3.295717    -24.225500    41.327629    0.000000    0.000000    0.000000    -10.981773    -13.927815    -22.275391    5.328773    16.905161    -18.863171    6.497403    9.130861    -10.578559    0.000000    0.000000    0.000000    
